<svg xmlns="http://www.w3.org/2000/svg" version="1.1" xmlns:xlink="http://www.w3.org/1999/xlink" xmlns:svgjs="http://svgjs.com/svgjs" width="400" height="400"><svg t="1692694161803" class="icon" viewBox="0 0 1024 1024" version="1.1" xmlns="http://www.w3.org/2000/svg" p-id="7254" xmlns:xlink="http://www.w3.org/1999/xlink" width="400" height="400"><path d="M313.984 736.448V641.28a144.384 144.384 0 0 0 30.464 20.992 247.744 247.744 0 0 0 37.504 15.808 309.632 309.632 0 0 0 39.68 9.856 213.12 213.12 0 0 0 36.544 3.456 156.288 156.288 0 0 0 86.784-19.2 64 64 0 0 0 28.608-56.448 61.568 61.568 0 0 0-9.472-34.368 103.488 103.488 0 0 0-26.496-26.816 281.6 281.6 0 0 0-40.384-23.36c-15.424-7.296-32-15.104-49.536-23.104q-28.416-15.168-52.864-30.656a233.28 233.28 0 0 1-42.816-34.112 145.152 145.152 0 0 1-28.288-42.688 137.344 137.344 0 0 1-10.112-55.488 128.32 128.32 0 0 1 17.664-68.224A149.888 149.888 0 0 1 377.6 229.12a215.104 215.104 0 0 1 65.92-28.032A312.896 312.896 0 0 1 519.168 192a301.504 301.504 0 0 1 127.488 19.904v91.264A203.84 203.84 0 0 0 524.8 268.8a222.08 222.08 0 0 0-41.024 3.904 123.392 123.392 0 0 0-36.544 12.8 79.232 79.232 0 0 0-26.176 22.976 56.256 56.256 0 0 0-10.112 33.856 64 64 0 0 0 7.744 32 83.2 83.2 0 0 0 22.784 24.896 222.016 222.016 0 0 0 36.544 21.952c14.336 7.168 30.976 14.784 49.92 23.104 19.2 10.112 37.76 20.8 54.976 32a254.336 254.336 0 0 1 45.44 36.992 160.448 160.448 0 0 1 31.104 44.8 131.008 131.008 0 0 1 11.456 56.192 139.392 139.392 0 0 1-17.088 71.488 138.048 138.048 0 0 1-46.016 47.36 202.944 202.944 0 0 1-66.688 26.432A372.032 372.032 0 0 1 461.248 768a326.976 326.976 0 0 1-34.432-2.112 465.92 465.92 0 0 1-82.176-16.32 128 128 0 0 1-30.656-13.12z" fill="#212121" p-id="7255"></path></svg><style>@media (prefers-color-scheme: light) { :root { filter: none; } }
</style></svg>